<svg width="88" height="114" viewBox="0 0 88 114" fill="none" xmlns="http://www.w3.org/2000/svg">
<rect width="87.5" height="114" rx="8" fill="#FFFAFA"/>
<rect x="7.65918" y="7.11938" width="72.1818" height="99.7613" rx="3.5" stroke="#E02C2D"/>
<mask id="mask0_183_379" style="mask-type:alpha" maskUnits="userSpaceOnUse" x="7" y="6" width="74" height="102">
<rect x="7.15918" y="6.61938" width="73.1818" height="100.761" rx="4" fill="#992929"/>
</mask>
<g mask="url(#mask0_183_379)">
<line y1="-0.5" x2="121.803" y2="-0.5" transform="matrix(0.734243 -0.678887 0.734243 0.678887 -42.1592 57.2532)" stroke="#E02C2D"/>
<line y1="-0.5" x2="121.803" y2="-0.5" transform="matrix(0.734243 0.678887 -0.734243 0.678887 48.3989 -26.4774)" stroke="#E02C2D"/>
<line y1="-0.5" x2="121.803" y2="-0.5" transform="matrix(0.734243 -0.678887 0.734243 0.678887 -18.5352 79.0959)" stroke="#E02C2D"/>
<line y1="-0.5" x2="121.803" y2="-0.5" transform="matrix(0.734243 0.678887 -0.734243 0.678887 24.7749 -4.63464)" stroke="#E02C2D"/>
<line y1="-0.5" x2="121.803" y2="-0.5" transform="matrix(0.734243 -0.678887 0.734243 0.678887 5.08887 100.939)" stroke="#E02C2D"/>
<line y1="-0.5" x2="121.803" y2="-0.5" transform="matrix(0.734243 0.678887 -0.734243 0.678887 1.15137 17.2081)" stroke="#E02C2D"/>
<line y1="-0.5" x2="121.803" y2="-0.5" transform="matrix(0.734243 -0.678887 0.734243 0.678887 28.7129 122.781)" stroke="#E02C2D"/>
<line y1="-0.5" x2="121.803" y2="-0.5" transform="matrix(0.734243 0.678887 -0.734243 0.678887 -22.4722 39.0508)" stroke="#E02C2D"/>
<line y1="-0.5" x2="121.803" y2="-0.5" transform="matrix(0.734243 -0.678887 0.734243 0.678887 -30.3477 68.1746)" stroke="#E02C2D"/>
<line y1="-0.5" x2="121.803" y2="-0.5" transform="matrix(0.734243 0.678887 -0.734243 0.678887 36.5869 -15.5561)" stroke="#E02C2D"/>
<line y1="-0.5" x2="121.803" y2="-0.5" transform="matrix(0.734243 -0.678887 0.734243 0.678887 -6.72363 90.0173)" stroke="#E02C2D"/>
<line y1="-0.5" x2="121.803" y2="-0.5" transform="matrix(0.734243 0.678887 -0.734243 0.678887 12.9629 6.28674)" stroke="#E02C2D"/>
<line y1="-0.5" x2="121.803" y2="-0.5" transform="matrix(0.734243 -0.678887 0.734243 0.678887 16.9004 111.86)" stroke="#E02C2D"/>
<line y1="-0.5" x2="121.803" y2="-0.5" transform="matrix(0.734243 0.678887 -0.734243 0.678887 -10.6606 28.1295)" stroke="#E02C2D"/>
<line y1="-0.5" x2="121.803" y2="-0.5" transform="matrix(0.734243 -0.678887 0.734243 0.678887 40.5244 133.703)" stroke="#E02C2D"/>
<line y1="-0.5" x2="121.803" y2="-0.5" transform="matrix(0.734243 0.678887 -0.734243 0.678887 -34.2842 49.9722)" stroke="#E02C2D"/>
<line y1="-0.5" x2="121.803" y2="-0.5" transform="matrix(0.734243 -0.678887 0.734243 0.678887 -38.2217 60.8936)" stroke="#E02C2D"/>
<line y1="-0.5" x2="121.803" y2="-0.5" transform="matrix(0.734243 0.678887 -0.734243 0.678887 44.4609 -22.8369)" stroke="#E02C2D"/>
<line y1="-0.5" x2="121.803" y2="-0.5" transform="matrix(0.734243 -0.678887 0.734243 0.678887 -14.5977 82.7363)" stroke="#E02C2D"/>
<line y1="-0.5" x2="121.803" y2="-0.5" transform="matrix(0.734243 0.678887 -0.734243 0.678887 20.8374 -0.994141)" stroke="#E02C2D"/>
<path d="M6.76123 106.153L98.1777 21.6284" stroke="#E02C2D"/>
<line y1="-0.5" x2="121.803" y2="-0.5" transform="matrix(0.734243 0.678887 -0.734243 0.678887 -2.78613 20.8486)" stroke="#E02C2D"/>
<line y1="-0.5" x2="121.803" y2="-0.5" transform="matrix(0.734243 -0.678887 0.734243 0.678887 32.6494 126.422)" stroke="#E02C2D"/>
<line y1="-0.5" x2="121.803" y2="-0.5" transform="matrix(0.734243 0.678887 -0.734243 0.678887 -26.4097 42.6914)" stroke="#E02C2D"/>
<line y1="-0.5" x2="121.803" y2="-0.5" transform="matrix(0.734243 -0.678887 0.734243 0.678887 -26.4097 71.8149)" stroke="#E02C2D"/>
<line y1="-0.5" x2="121.803" y2="-0.5" transform="matrix(0.734243 0.678887 -0.734243 0.678887 32.6494 -11.9155)" stroke="#E02C2D"/>
<line y1="-0.5" x2="121.803" y2="-0.5" transform="matrix(0.734243 -0.678887 0.734243 0.678887 -2.78613 93.6578)" stroke="#E02C2D"/>
<line y1="-0.5" x2="121.803" y2="-0.5" transform="matrix(0.734243 0.678887 -0.734243 0.678887 9.02588 9.92719)" stroke="#E02C2D"/>
<line y1="-0.5" x2="121.803" y2="-0.5" transform="matrix(0.734243 -0.678887 0.734243 0.678887 20.8374 115.501)" stroke="#E02C2D"/>
<line y1="-0.5" x2="121.803" y2="-0.5" transform="matrix(0.734243 0.678887 -0.734243 0.678887 -14.5977 31.7701)" stroke="#E02C2D"/>
<line y1="-0.5" x2="121.803" y2="-0.5" transform="matrix(0.734243 -0.678887 0.734243 0.678887 44.4609 137.343)" stroke="#E02C2D"/>
<line y1="-0.5" x2="121.803" y2="-0.5" transform="matrix(0.734243 0.678887 -0.734243 0.678887 -38.2217 53.6128)" stroke="#E02C2D"/>
<line y1="-0.5" x2="121.803" y2="-0.5" transform="matrix(0.734243 -0.678887 0.734243 0.678887 -34.2842 64.5342)" stroke="#E02C2D"/>
<line y1="-0.5" x2="121.803" y2="-0.5" transform="matrix(0.734243 0.678887 -0.734243 0.678887 40.5244 -19.1965)" stroke="#E02C2D"/>
<line y1="-0.5" x2="121.803" y2="-0.5" transform="matrix(0.734243 -0.678887 0.734243 0.678887 -10.6606 86.377)" stroke="#E02C2D"/>
<line y1="-0.5" x2="121.803" y2="-0.5" transform="matrix(0.734243 0.678887 -0.734243 0.678887 16.9004 2.64624)" stroke="#E02C2D"/>
<line y1="-0.5" x2="121.803" y2="-0.5" transform="matrix(0.734243 -0.678887 0.734243 0.678887 12.9629 108.22)" stroke="#E02C2D"/>
<line y1="-0.5" x2="121.803" y2="-0.5" transform="matrix(0.734243 0.678887 -0.734243 0.678887 -6.72363 24.4891)" stroke="#E02C2D"/>
<line y1="-0.5" x2="121.803" y2="-0.5" transform="matrix(0.734243 -0.678887 0.734243 0.678887 36.5869 130.062)" stroke="#E02C2D"/>
<line y1="-0.5" x2="121.803" y2="-0.5" transform="matrix(0.734243 0.678887 -0.734243 0.678887 -30.3477 46.3318)" stroke="#E02C2D"/>
<line y1="-0.5" x2="121.803" y2="-0.5" transform="matrix(0.734243 -0.678887 0.734243 0.678887 -22.4722 75.4556)" stroke="#E02C2D"/>
<line y1="-0.5" x2="121.803" y2="-0.5" transform="matrix(0.734243 0.678887 -0.734243 0.678887 28.7129 -8.27509)" stroke="#E02C2D"/>
<line y1="-0.5" x2="121.803" y2="-0.5" transform="matrix(0.734243 -0.678887 0.734243 0.678887 1.15137 97.2983)" stroke="#E02C2D"/>
<line y1="-0.5" x2="121.803" y2="-0.5" transform="matrix(0.734243 0.678887 -0.734243 0.678887 5.08887 13.5676)" stroke="#E02C2D"/>
<line y1="-0.5" x2="121.803" y2="-0.5" transform="matrix(0.734243 -0.678887 0.734243 0.678887 24.7749 119.141)" stroke="#E02C2D"/>
<line y1="-0.5" x2="121.803" y2="-0.5" transform="matrix(0.734243 0.678887 -0.734243 0.678887 -18.5352 35.4104)" stroke="#E02C2D"/>
<line y1="-0.5" x2="121.803" y2="-0.5" transform="matrix(0.734243 -0.678887 0.734243 0.678887 48.3989 140.984)" stroke="#E02C2D"/>
<line y1="-0.5" x2="121.803" y2="-0.5" transform="matrix(0.734243 0.678887 -0.734243 0.678887 -42.1592 57.2532)" stroke="#E02C2D"/>
</g>
</svg>
